<?xml version="1.0" standalone="no"?><!DOCTYPE svg PUBLIC "-//W3C//DTD SVG 1.1//EN" "http://www.w3.org/Graphics/SVG/1.1/DTD/svg11.dtd"><svg t="1688631887171" class="icon" viewBox="0 0 1024 1024" version="1.1" xmlns="http://www.w3.org/2000/svg" p-id="2260" xmlns:xlink="http://www.w3.org/1999/xlink" width="200" height="200"><path d="M618.197333 803.712a34.944 34.944 0 0 0-9.130666 1.28h0.298666l-207.658666 54.4a30.933333 30.933333 0 0 0-23.424 35.157333 32.256 32.256 0 0 0 41.045333 28.202667h-0.554667l207.786667-53.589333a30.890667 30.890667 0 0 0 23.424-35.2 33.194667 33.194667 0 0 0-31.957333-30.293334h0.170666zM568.533333 916.053333a30.592 30.592 0 0 0-17.621333 6.016 79.104 79.104 0 0 1-39.04 15.573334h-1.962667a54.272 54.272 0 0 1-24.192-7.082667h0.298667l-5.248-3.285333c-5.12-3.285333-6.528-4.266667-8.192-4.48a33.066667 33.066667 0 0 0-15.445333-3.925334 37.12 37.12 0 0 0-34.133334 23.850667v0.298667a27.52 27.52 0 0 0 9.941334 31.573333 125.44 125.44 0 0 0 79.146666 28.074667 128.853333 128.853333 0 0 0 74.069334-23.978667h-0.426667c12.032-8.533333 17.066667-23.893333 12.416-37.888v0.298667a32.298667 32.298667 0 0 0-29.44-24.192v-0.853334h-0.170667zM746.282667 329.088a249.6 249.6 0 0 0-97.109334-99.84l-1.28-0.682667a268.032 268.032 0 0 0-129.792-33.109333h-1.450666c-40.448 0-80.426667 8.490667-117.333334 25.088l1.834667-0.682667a267.392 267.392 0 0 0-96.512 72.533334l-0.341333 0.426666a285.141333 285.141333 0 0 0-55.04 229.888l-0.341334-1.749333a265.088 265.088 0 0 0 119.210667 185.045333l1.066667 0.682667a32.341333 32.341333 0 0 0 16.768 4.608 33.749333 33.749333 0 0 0 31.573333-25.6v-0.298667a31.061333 31.061333 0 0 0-14.72-36.096c-84.522667-50.005333-108.330667-170.410667-82.176-253.312a198.613333 198.613333 0 0 1 187.733333-134.570666h6.272a210.56 210.56 0 0 1 107.093334 29.013333l-0.896-0.298667a188.757333 188.757333 0 0 1 87.082666 117.589334l0.298667 1.322666a211.498667 211.498667 0 0 1-23.552 162.133334l0.512-0.896c-12.245333 18.773333-25.984 36.565333-41.088 53.162666l0.298667-0.341333a620.8 620.8 0 0 0-27.349334 33.365333c-11.946667 17.706667-19.84 37.845333-23.125333 58.922667v0.896l-2.474667 10.794667-189.738666 50.389333a31.146667 31.146667 0 0 0-23.424 35.626667 32.981333 32.981333 0 0 0 31.786666 30.933333c3.2 0 6.4-0.426667 9.472-1.28h-0.384l163.968-43.477333c40.832-10.112 72.533333-18.090667 76.16-76.8 5.162667-22.186667 17.28-42.154667 34.56-57.002667l11.221334-12.8a340.778667 340.778667 0 0 0 56.106666-85.333333l0.853334-2.090667c13.226667-32.341333 20.010667-66.986667 19.925333-101.973333a270.549333 270.549333 0 0 0-36.096-135.338667l0.682667 1.28h-0.298667v-0.128zM934.741333 437.589333h-64a33.194667 33.194667 0 0 0 0 66.389334h64a33.194667 33.194667 0 0 0 0-66.389334M153.258667 437.248h-64a33.194667 33.194667 0 0 0 0 66.389333h64a33.194667 33.194667 0 0 0 0-66.389333M236.202667 239.658667a33.109333 33.109333 0 1 0 46.677333-46.933334L237.610667 147.2a33.152 33.152 0 0 0-46.72 46.976l45.226666 45.653333v-0.128zM790.229333 702.165333a33.066667 33.066667 0 0 0-46.634666 46.933334l45.226666 45.44a33.109333 33.109333 0 1 0 46.677334-46.933334l-45.312-45.44zM512.896 149.333333a32.981333 32.981333 0 0 0 33.408-33.109333V51.456a33.109333 33.109333 0 0 0-65.92-0.256v64.725333a32.981333 32.981333 0 0 0 32.469333 33.408h0.042667M282.965333 702.08a33.024 33.024 0 0 0-46.549333 0L191.104 747.52a33.152 33.152 0 1 0 46.933333 46.933333l45.226667-45.354666a33.152 33.152 0 0 0 0.042667-46.890667h-0.042667l-0.298667-0.128zM743.424 239.658667c12.842667 12.8 33.664 12.8 46.506667 0l45.354666-45.44a33.152 33.152 0 1 0-46.933333-46.933334L743.04 192.853333a33.152 33.152 0 0 0-0.042667 46.890667h0.042667" fill="#707070" p-id="2261"></path></svg>